<mxfile host="app.diagrams.net" modified="2024-02-02T01:33:29.734Z" agent="Mozilla/5.0 (Windows NT 10.0; Win64; x64) AppleWebKit/537.36 (KHTML, like Gecko) Chrome/121.0.0.0 Safari/537.36 Edg/121.0.0.0" etag="KPIlL9Qp3h6Mmvqc-nAe" version="23.0.2" type="github">
  <diagram name="第 1 页" id="PcGPSTA22wv9uX0VlDKi">
    <mxGraphModel dx="809" dy="435" grid="1" gridSize="10" guides="1" tooltips="1" connect="1" arrows="1" fold="1" page="1" pageScale="1" pageWidth="827" pageHeight="1169" math="0" shadow="0">
      <root>
        <mxCell id="0" />
        <mxCell id="1" parent="0" />
        <mxCell id="9HHtFwivhYvipi38CLGD-9" style="edgeStyle=orthogonalEdgeStyle;rounded=0;orthogonalLoop=1;jettySize=auto;html=1;entryX=0.5;entryY=0;entryDx=0;entryDy=0;" edge="1" parent="1" source="9HHtFwivhYvipi38CLGD-1" target="9HHtFwivhYvipi38CLGD-2">
          <mxGeometry relative="1" as="geometry" />
        </mxCell>
        <mxCell id="9HHtFwivhYvipi38CLGD-1" value="user id，age" style="rounded=1;whiteSpace=wrap;html=1;fillColor=#dae8fc;strokeColor=#6c8ebf;" vertex="1" parent="1">
          <mxGeometry x="339" y="60" width="90" height="60" as="geometry" />
        </mxCell>
        <mxCell id="9HHtFwivhYvipi38CLGD-13" style="edgeStyle=orthogonalEdgeStyle;rounded=0;orthogonalLoop=1;jettySize=auto;html=1;entryX=0.5;entryY=0;entryDx=0;entryDy=0;" edge="1" parent="1" source="9HHtFwivhYvipi38CLGD-2" target="9HHtFwivhYvipi38CLGD-5">
          <mxGeometry relative="1" as="geometry" />
        </mxCell>
        <mxCell id="9HHtFwivhYvipi38CLGD-2" value="occupation" style="rounded=1;whiteSpace=wrap;html=1;fillColor=#d5e8d4;strokeColor=#82b366;" vertex="1" parent="1">
          <mxGeometry x="324" y="200" width="120" height="60" as="geometry" />
        </mxCell>
        <mxCell id="9HHtFwivhYvipi38CLGD-3" value="item id，title，genres" style="rounded=1;whiteSpace=wrap;html=1;fillColor=#dae8fc;strokeColor=#6c8ebf;" vertex="1" parent="1">
          <mxGeometry x="170" y="60" width="120" height="60" as="geometry" />
        </mxCell>
        <mxCell id="9HHtFwivhYvipi38CLGD-4" value="gender" style="rounded=1;whiteSpace=wrap;html=1;fillColor=#f8cecc;strokeColor=#b85450;" vertex="1" parent="1">
          <mxGeometry x="480" y="60" width="80" height="60" as="geometry" />
        </mxCell>
        <mxCell id="9HHtFwivhYvipi38CLGD-5" value="rating" style="rounded=1;whiteSpace=wrap;html=1;fillColor=#0050ef;fontColor=#ffffff;strokeColor=#001DBC;" vertex="1" parent="1">
          <mxGeometry x="354" y="330" width="60" height="30" as="geometry" />
        </mxCell>
        <mxCell id="9HHtFwivhYvipi38CLGD-8" value="" style="endArrow=classic;html=1;rounded=0;exitX=0.5;exitY=1;exitDx=0;exitDy=0;" edge="1" parent="1" source="9HHtFwivhYvipi38CLGD-3">
          <mxGeometry width="50" height="50" relative="1" as="geometry">
            <mxPoint x="360" y="260" as="sourcePoint" />
            <mxPoint x="384" y="200" as="targetPoint" />
          </mxGeometry>
        </mxCell>
        <mxCell id="9HHtFwivhYvipi38CLGD-12" value="" style="endArrow=classic;html=1;rounded=0;exitX=0.5;exitY=1;exitDx=0;exitDy=0;entryX=0.5;entryY=0;entryDx=0;entryDy=0;" edge="1" parent="1" source="9HHtFwivhYvipi38CLGD-4" target="9HHtFwivhYvipi38CLGD-2">
          <mxGeometry width="50" height="50" relative="1" as="geometry">
            <mxPoint x="360" y="260" as="sourcePoint" />
            <mxPoint x="330" y="290" as="targetPoint" />
          </mxGeometry>
        </mxCell>
      </root>
    </mxGraphModel>
  </diagram>
</mxfile>
